<?xml version="1.0" encoding="utf-8"?>
<!-- Generator: Adobe Illustrator 23.0.1, SVG Export Plug-In . SVG Version: 6.00 Build 0)  -->
<svg version="1.1" id="Layer_1" xmlns="http://www.w3.org/2000/svg" xmlns:xlink="http://www.w3.org/1999/xlink" x="0px" y="0px"
	 viewBox="0 0 76.18 79.45" style="enable-background:new 0 0 76.18 79.45;" xml:space="preserve">
<style type="text/css">
	.st0{fill:#FFFFFF;}
</style>
<g>
	<polygon class="st0" points="24.26,0 0.01,24.26 0.01,46.93 0.05,46.97 0,46.97 0,47 32.45,79.45 32.46,79.44 32.46,56.7 
		24.26,48.5 24.26,25.89 12.96,37.2 11.39,35.63 24.26,22.76 	"/>
	<polygon class="st0" points="31.66,29.44 31.66,32.3 37.68,32.3 37.68,35.86 31.66,35.86 31.66,42.13 27.67,42.13 27.67,25.88 
		38.71,25.88 38.71,29.44 	"/>
	<g>
		<path class="st0" d="M45.94,42.27c-3.38,0-6.14-2.28-6.14-5.84V25.88h3.99v10.45c0,1.51,0.82,2.37,2.15,2.37
			c1.32,0,2.19-0.87,2.19-2.37V25.88h3.99v10.54C52.13,39.99,49.32,42.27,45.94,42.27"/>
	</g>
	<polygon class="st0" points="53.22,42.13 53.22,25.88 64.27,25.88 64.27,29.44 57.22,29.44 57.22,32.16 63.24,32.16 63.24,35.72 
		57.22,35.72 57.22,38.57 64.27,38.57 64.27,42.13 	"/>
	<polygon class="st0" points="65.36,25.88 65.36,42.13 76.18,42.13 76.18,38.57 69.36,38.57 69.36,25.88 	"/>
	<polygon class="st0" points="27.73,44.82 28.59,44.82 28.59,46.19 29.27,46.19 29.27,44.82 30.13,44.82 30.13,48.47 29.27,48.47 
		29.27,46.91 28.59,46.91 28.59,48.47 27.73,48.47 	"/>
	<rect x="30.68" y="44.82" class="st0" width="0.86" height="3.65"/>
	<g>
		<path class="st0" d="M33.63,45.93c0-0.23-0.03-0.61-0.34-0.61c-0.35,0-0.39,0.36-0.39,1.33c0,1,0.05,1.32,0.39,1.32
			c0.29,0,0.39-0.26,0.39-0.77v-0.12h-0.4v-0.57h1.2v1.96h-0.59l-0.02-0.35h-0.01c-0.14,0.33-0.46,0.42-0.79,0.42
			c-0.92,0-1.07-0.68-1.07-1.82c0-1.2,0.08-1.98,1.3-1.98c1.11,0,1.16,0.77,1.16,1.18H33.63z"/>
	</g>
	<polygon class="st0" points="34.93,44.82 35.79,44.82 35.79,46.19 36.48,46.19 36.48,44.82 37.34,44.82 37.34,48.47 36.48,48.47 
		36.48,46.91 35.79,46.91 35.79,48.47 34.93,48.47 	"/>
	<g>
		<path class="st0" d="M40.06,46.41h0.24c0.34,0,0.43-0.21,0.43-0.46c0-0.28-0.09-0.5-0.44-0.5h-0.22V46.41z M39.2,44.82h1.33
			c0.91,0,1.08,0.66,1.08,1.11c0,0.66-0.31,1.12-1.17,1.12h-0.38v1.43H39.2V44.82z"/>
	</g>
	<polygon class="st0" points="42.04,44.82 44.16,44.82 44.16,45.52 42.9,45.52 42.9,46.25 44.08,46.25 44.08,46.94 42.9,46.94 
		42.9,47.78 44.21,47.78 44.21,48.47 42.04,48.47 	"/>
	<g>
		<path class="st0" d="M45.46,46.36h0.27c0.35,0,0.44-0.26,0.44-0.48c0-0.27-0.1-0.46-0.44-0.46h-0.26V46.36z M44.6,44.82h1.44
			c0.73,0,0.98,0.45,0.98,0.95c0,0.53-0.21,0.79-0.61,0.89v0.01c0.55,0.08,0.57,0.42,0.59,0.91c0.01,0.72,0.05,0.79,0.16,0.84v0.05
			h-0.93c-0.07-0.12-0.09-0.33-0.09-0.74c0-0.63-0.09-0.77-0.36-0.77h-0.33v1.51H44.6V44.82z"/>
	</g>
	<polygon class="st0" points="47.54,44.82 49.65,44.82 49.65,45.52 48.4,45.52 48.4,46.25 49.58,46.25 49.58,46.94 48.4,46.94 
		48.4,48.47 47.54,48.47 	"/>
	<g>
		<path class="st0" d="M51.2,47.97c0.35,0,0.4-0.32,0.4-1.32c0-1-0.05-1.33-0.4-1.33c-0.34,0-0.39,0.32-0.39,1.33
			C50.81,47.65,50.86,47.97,51.2,47.97 M51.2,48.54c-1.13,0-1.28-0.74-1.28-1.9c0-1.16,0.15-1.9,1.28-1.9c1.21,0,1.28,0.89,1.28,1.9
			S52.42,48.54,51.2,48.54"/>
		<path class="st0" d="M53.8,46.36h0.27c0.35,0,0.44-0.26,0.44-0.48c0-0.27-0.1-0.46-0.44-0.46H53.8V46.36z M52.94,44.82h1.44
			c0.73,0,0.98,0.45,0.98,0.95c0,0.53-0.21,0.79-0.61,0.89v0.01c0.55,0.08,0.57,0.42,0.59,0.91c0.01,0.72,0.05,0.79,0.16,0.84v0.05
			h-0.93c-0.07-0.12-0.09-0.33-0.09-0.74c0-0.63-0.09-0.77-0.36-0.77H53.8v1.51h-0.86V44.82z"/>
	</g>
	<polygon class="st0" points="55.9,44.82 57.16,44.82 57.61,47.22 57.62,47.22 58.06,44.82 59.3,44.82 59.3,48.47 58.5,48.47 
		58.5,45.63 58.49,45.63 57.93,48.47 57.27,48.47 56.68,45.63 56.67,45.63 56.67,48.47 55.9,48.47 	"/>
	<path class="st0" d="M61.06,45.48h-0.01l-0.3,1.63h0.62L61.06,45.48z M60.53,44.82h1.07l0.91,3.65h-0.89l-0.13-0.7h-0.88l-0.13,0.7
		H59.6L60.53,44.82z"/>
	<polygon class="st0" points="62.79,44.82 63.78,44.82 64.49,47.19 64.5,47.19 64.5,44.82 65.3,44.82 65.3,48.47 64.32,48.47 
		63.57,45.96 63.56,45.96 63.56,48.47 62.79,48.47 	"/>
	<g>
		<path class="st0" d="M67.36,46.09c0-0.53-0.06-0.77-0.35-0.77c-0.34,0-0.37,0.33-0.37,1.29c0,1.08,0.04,1.37,0.39,1.37
			c0.31,0,0.36-0.36,0.36-0.93h0.83v0.13c0,0.79-0.22,1.38-1.28,1.38c-1.1,0-1.19-0.82-1.19-1.92c0-0.94,0.06-1.87,1.27-1.87
			c0.76,0,1.17,0.33,1.17,1.19v0.15H67.36z"/>
	</g>
	<polygon class="st0" points="68.58,44.82 70.69,44.82 70.69,45.52 69.44,45.52 69.44,46.25 70.61,46.25 70.61,46.94 69.44,46.94 
		69.44,47.78 70.75,47.78 70.75,48.47 68.58,48.47 	"/>
	<rect x="72.48" y="44.82" class="st0" width="0.86" height="3.65"/>
	<polygon class="st0" points="74.42,45.52 73.65,45.52 73.65,44.82 76.05,44.82 76.05,45.52 75.28,45.52 75.28,48.47 74.42,48.47 	
		"/>
</g>
</svg>
