<?xml version="1.0" encoding="utf-8"?>
<!-- Generator: Adobe Illustrator 23.0.1, SVG Export Plug-In . SVG Version: 6.00 Build 0)  -->
<svg version="1.1" id="Layer_1" xmlns="http://www.w3.org/2000/svg" xmlns:xlink="http://www.w3.org/1999/xlink" x="0px" y="0px"
	 viewBox="0 0 123.84 130" style="enable-background:new 0 0 123.84 130;" xml:space="preserve">
<g>
	<path d="M62.52,42.33v4.86H50.3v6.07h10.59v4.49H50.3v10.86h-5.56V42.33H62.52z"/>
	<path d="M81.39,66.61c-1.73,1.73-4.12,2.59-7.18,2.59c-3.1,0-5.5-0.86-7.19-2.58c-1.7-1.72-2.55-4.37-2.55-7.95V42.33h5.03v16.34
		c0,0.71,0.05,1.41,0.16,2.1c0.11,0.69,0.33,1.29,0.67,1.82c0.34,0.53,0.82,0.96,1.43,1.29c0.61,0.33,1.43,0.5,2.45,0.5
		c1.79,0,3.03-0.46,3.72-1.38c0.68-0.92,1.03-2.36,1.03-4.32V42.33h5.03v16.34C83.99,62.23,83.12,64.88,81.39,66.61z"/>
	<path d="M104.32,42.33v4.86h-12.3v5.63h11.29v4.49H92.01v6.44h12.56v4.86H86.89V42.33H104.32z"/>
	<path d="M112.13,42.33v21.42h11.72v4.86h-17V42.33H112.13z"/>
	<g>
		<path d="M45.63,73v2.38h1.47V73h1.26v6.23H47.1v-2.77h-1.47v2.77h-1.26V73H45.63z"/>
		<path d="M49.29,73h1.26v6.23h-1.26V73z"/>
		<path d="M54.21,74.5c-0.03-0.12-0.07-0.23-0.13-0.34c-0.06-0.1-0.13-0.19-0.22-0.25c-0.09-0.07-0.2-0.1-0.33-0.1
			c-0.3,0-0.52,0.17-0.65,0.51c-0.13,0.34-0.2,0.9-0.2,1.68c0,0.37,0.01,0.71,0.03,1.01c0.02,0.3,0.07,0.56,0.13,0.77
			c0.06,0.21,0.15,0.38,0.26,0.49c0.11,0.11,0.26,0.17,0.44,0.17c0.08,0,0.16-0.02,0.25-0.06s0.17-0.1,0.25-0.18
			c0.08-0.08,0.14-0.18,0.2-0.31c0.05-0.13,0.08-0.27,0.08-0.44V76.8h-0.83v-0.93h2.03v3.36H54.6v-0.58h-0.02
			c-0.15,0.24-0.33,0.42-0.55,0.52c-0.21,0.1-0.47,0.15-0.76,0.15c-0.38,0-0.7-0.07-0.94-0.2c-0.24-0.13-0.43-0.34-0.57-0.62
			c-0.14-0.28-0.23-0.62-0.28-1.03c-0.05-0.41-0.07-0.89-0.07-1.43c0-0.52,0.03-0.98,0.1-1.38c0.07-0.4,0.18-0.73,0.34-0.99
			s0.38-0.46,0.65-0.6c0.27-0.13,0.6-0.2,1-0.2c0.69,0,1.18,0.17,1.48,0.51c0.3,0.34,0.45,0.83,0.45,1.46h-1.21
			C54.25,74.74,54.24,74.62,54.21,74.5z"/>
		<path d="M57.6,73v2.38h1.47V73h1.26v6.23h-1.26v-2.77H57.6v2.77h-1.26V73H57.6z"/>
		<path d="M65.49,73c0.32,0,0.59,0.05,0.81,0.16c0.22,0.11,0.39,0.25,0.53,0.42c0.13,0.17,0.23,0.37,0.29,0.6
			c0.06,0.22,0.09,0.45,0.09,0.68c0,0.32-0.05,0.6-0.14,0.84c-0.1,0.24-0.23,0.43-0.4,0.58c-0.17,0.15-0.38,0.27-0.62,0.34
			c-0.24,0.08-0.52,0.11-0.81,0.11h-0.67v2.49h-1.26V73H65.49z M65.11,75.82c0.25,0,0.45-0.08,0.61-0.23
			c0.15-0.15,0.23-0.39,0.23-0.71c0-0.31-0.07-0.55-0.2-0.72c-0.13-0.16-0.36-0.24-0.67-0.24h-0.52v1.9H65.11z"/>
		<path d="M71.3,74.03h-2.23v1.47h2.1v1.03h-2.1v1.68h2.31v1.03h-3.57V73h3.48V74.03z"/>
		<path d="M74.34,73c0.52,0,0.93,0.13,1.22,0.4c0.29,0.27,0.44,0.67,0.44,1.21c0,0.42-0.08,0.76-0.25,1.03
			c-0.17,0.27-0.43,0.44-0.79,0.51v0.02c0.31,0.05,0.54,0.15,0.69,0.31c0.15,0.16,0.24,0.41,0.27,0.76
			c0.01,0.12,0.02,0.24,0.03,0.38c0.01,0.14,0.01,0.29,0.02,0.46c0.01,0.33,0.03,0.58,0.05,0.76c0.03,0.17,0.11,0.29,0.23,0.36v0.05
			h-1.36c-0.06-0.09-0.1-0.19-0.12-0.3c-0.02-0.11-0.03-0.23-0.04-0.35l-0.03-1.2c-0.01-0.24-0.07-0.44-0.18-0.58
			c-0.11-0.14-0.3-0.21-0.56-0.21h-0.67v2.64h-1.26V73H74.34z M73.8,75.73c0.3,0,0.54-0.07,0.7-0.21c0.16-0.14,0.24-0.38,0.24-0.72
			c0-0.58-0.29-0.86-0.87-0.86h-0.59v1.8H73.8z"/>
		<path d="M80.36,73v1.03h-2.23v1.47h2.1v1.03h-2.1v2.71h-1.26V73H80.36z"/>
		<path d="M80.85,74.82c0.04-0.4,0.14-0.74,0.29-1.03c0.15-0.29,0.36-0.51,0.64-0.67c0.28-0.16,0.65-0.24,1.13-0.24
			c0.47,0,0.85,0.08,1.13,0.24c0.28,0.16,0.49,0.38,0.64,0.67c0.15,0.28,0.24,0.63,0.29,1.03c0.04,0.4,0.07,0.83,0.07,1.31
			c0,0.48-0.02,0.91-0.07,1.31c-0.04,0.4-0.14,0.74-0.29,1.02c-0.15,0.29-0.36,0.5-0.64,0.66c-0.28,0.15-0.65,0.23-1.13,0.23
			c-0.47,0-0.85-0.08-1.13-0.23c-0.28-0.15-0.49-0.37-0.64-0.66c-0.15-0.28-0.24-0.63-0.29-1.02c-0.04-0.4-0.07-0.83-0.07-1.31
			C80.79,75.65,80.81,75.22,80.85,74.82z M82.08,77.19c0.02,0.29,0.06,0.53,0.12,0.72c0.06,0.18,0.15,0.32,0.26,0.4
			c0.11,0.08,0.26,0.13,0.45,0.13s0.34-0.04,0.45-0.13c0.11-0.08,0.2-0.22,0.26-0.4c0.06-0.18,0.1-0.42,0.12-0.72
			c0.02-0.29,0.03-0.65,0.03-1.07c0-0.42-0.01-0.77-0.03-1.07c-0.02-0.29-0.06-0.53-0.12-0.72c-0.06-0.19-0.15-0.32-0.26-0.41
			c-0.11-0.08-0.26-0.13-0.45-0.13s-0.34,0.04-0.45,0.13c-0.11,0.08-0.2,0.22-0.26,0.41s-0.1,0.42-0.12,0.72
			c-0.02,0.29-0.03,0.65-0.03,1.07C82.04,76.54,82.05,76.9,82.08,77.19z"/>
		<path d="M88.1,73c0.52,0,0.93,0.13,1.22,0.4c0.29,0.27,0.44,0.67,0.44,1.21c0,0.42-0.08,0.76-0.25,1.03
			c-0.17,0.27-0.43,0.44-0.79,0.51v0.02c0.31,0.05,0.54,0.15,0.69,0.31c0.15,0.16,0.24,0.41,0.27,0.76
			c0.01,0.12,0.02,0.24,0.03,0.38c0.01,0.14,0.01,0.29,0.02,0.46c0.01,0.33,0.03,0.58,0.05,0.76c0.03,0.17,0.11,0.29,0.23,0.36v0.05
			h-1.36c-0.06-0.09-0.1-0.19-0.12-0.3c-0.02-0.11-0.03-0.23-0.04-0.35l-0.03-1.2c-0.01-0.24-0.07-0.44-0.18-0.58
			c-0.11-0.14-0.3-0.21-0.56-0.21h-0.67v2.64h-1.26V73H88.1z M87.55,75.73c0.3,0,0.54-0.07,0.7-0.21c0.16-0.14,0.24-0.38,0.24-0.72
			c0-0.58-0.29-0.86-0.87-0.86h-0.59v1.8H87.55z"/>
		<path d="M92.52,73l0.89,4.4h0.02l0.9-4.4h1.86v6.23h-1.15v-4.98h-0.02l-1.11,4.98h-0.98l-1.11-4.98h-0.02v4.98h-1.15V73H92.52z"/>
		<path d="M99.86,73l1.65,6.23h-1.31l-0.29-1.32h-1.66l-0.29,1.32h-1.31L98.3,73H99.86z M99.69,76.89l-0.6-2.8h-0.02l-0.6,2.8H99.69
			z"/>
		<path d="M104.91,77.27h0.02V73h1.15v6.23h-1.43l-1.54-4.37h-0.02v4.37h-1.15V73h1.45L104.91,77.27z"/>
		<path d="M109.46,74.12c-0.11-0.21-0.3-0.31-0.59-0.31c-0.16,0-0.29,0.04-0.39,0.13c-0.1,0.08-0.18,0.22-0.24,0.41
			c-0.06,0.19-0.1,0.44-0.12,0.74c-0.02,0.31-0.03,0.68-0.03,1.12c0,0.47,0.02,0.85,0.05,1.14c0.03,0.29,0.08,0.52,0.15,0.68
			c0.07,0.16,0.15,0.27,0.25,0.32c0.1,0.06,0.22,0.08,0.35,0.08c0.11,0,0.21-0.02,0.31-0.06c0.1-0.04,0.18-0.11,0.25-0.23
			c0.07-0.11,0.13-0.27,0.17-0.48c0.04-0.21,0.06-0.48,0.06-0.82h1.26c0,0.34-0.03,0.66-0.08,0.96c-0.05,0.3-0.15,0.57-0.29,0.8
			c-0.14,0.23-0.34,0.4-0.6,0.53c-0.26,0.13-0.6,0.19-1.01,0.19c-0.47,0-0.85-0.08-1.13-0.23c-0.28-0.15-0.49-0.37-0.64-0.66
			c-0.15-0.28-0.24-0.63-0.29-1.02c-0.04-0.4-0.07-0.83-0.07-1.31c0-0.47,0.02-0.91,0.07-1.31c0.04-0.4,0.14-0.74,0.29-1.03
			c0.15-0.29,0.36-0.51,0.64-0.67c0.28-0.16,0.65-0.24,1.13-0.24c0.45,0,0.8,0.07,1.06,0.22c0.26,0.15,0.45,0.33,0.58,0.55
			c0.13,0.22,0.21,0.47,0.24,0.72c0.03,0.26,0.05,0.5,0.05,0.73h-1.26C109.62,74.65,109.56,74.32,109.46,74.12z"/>
		<path d="M115.13,74.03h-2.23v1.47h2.1v1.03h-2.1v1.68h2.31v1.03h-3.57V73h3.48V74.03z"/>
		<path d="M118,73h1.26v6.23H118V73z"/>
		<path d="M123.84,74.03h-1.36v5.2h-1.26v-5.2h-1.36V73h3.98V74.03z"/>
	</g>
	<polygon points="39.18,41.83 20.59,60.43 18.25,58.09 39.18,37.16 39.18,0 0,39.18 0,77.89 52.28,130 52.28,92.1 39.18,79 	"/>
</g>
</svg>
