<svg id="Group_447" data-name="Group 447" xmlns="http://www.w3.org/2000/svg" viewBox="0 0 27 27">
  <defs>
    <style>
      .cls-1 {
        fill: #fff;
      }
    </style>
  </defs>
  <path id="Path_21474" data-name="Path 21474" class="cls-1" d="M13.5,0A13.5,13.5,0,1,0,27,13.5,13.5,13.5,0,0,0,13.5,0Zm0,24.891A11.391,11.391,0,1,1,24.891,13.5,11.39,11.39,0,0,1,13.5,24.891Z"/>
  <g id="Group_446" data-name="Group 446" transform="translate(6.755 6.745)">
    <g id="Group_445" data-name="Group 445">
      <path id="Path_21475" data-name="Path 21475" class="cls-1" d="M128.1,141.4h2.531V131.275H128.1Zm10.125-10.125a4.638,4.638,0,0,0-3.375,1.688v-1.687h-2.531V141.4h2.531v-5.906a2.151,2.151,0,0,1,2.531-1.687c1.071.069,1.651,1.487,1.688,1.688V141.4l2.521.011V134.4A3.16,3.16,0,0,0,138.225,131.275Zm-8.859-3.375a1.266,1.266,0,1,0,1.266,1.266A1.266,1.266,0,0,0,129.366,127.9Z" transform="translate(-128.1 -127.9)"/>
    </g>
  </g>
</svg>
