<svg xmlns="http://www.w3.org/2000/svg" viewBox="0 0 52.185 39.425">
  <defs>
    <style>
      .cls-1 {
        fill: #fff;
      }
    </style>
  </defs>
  <g id="paper-airplane-outline" transform="translate(0 -74.818)">
    <path id="Path_21514" data-name="Path 21514" class="cls-1" d="M52.184,76.071a1.249,1.249,0,0,0-.165-.575c-.03-.059-.006-.131-.05-.187-.021-.023-.05-.02-.071-.038s-.024-.068-.044-.092a1.3,1.3,0,0,0-.687-.353c-.027,0-.041.011-.065.006a1.292,1.292,0,0,0-.684.08L.769,96.688a1.294,1.294,0,0,0,.218,2.439l11.231,2.722,5.46,11.65c.038.076.109.113.16.178.024.041.009.092.044.128a.918.918,0,0,0,.195.142.715.715,0,0,0,.16.116,1.266,1.266,0,0,0,.613.18,1.2,1.2,0,0,0,.145-.009,1.264,1.264,0,0,0,.634-.285c.021-.018.056-.009.08-.029l8.6-7.591,8.514,2.793a1.311,1.311,0,0,0,1.593-.716l13.708-31.8a1.6,1.6,0,0,0,.021-.243A1.05,1.05,0,0,0,52.184,76.071ZM20.258,101.636c-.024.017-.015.048-.038.066a1.3,1.3,0,0,0-.369.625l-1.448,6.62-3.622-7.739L37.133,86.639ZM37.08,83.584,12.892,99.348,5.315,97.514ZM20.957,109.372l1.112-5.093,3.4,1.113Zm15.56-3.075-12.862-4.222,23.8-21.152Z" transform="translate(0)"/>
  </g>
</svg>
