<svg id="Group_577" data-name="Group 577" xmlns="http://www.w3.org/2000/svg" viewBox="0 0 42.529 42.529">
  <defs>
    <style>
      .cls-1 {
        fill: #00a3e6;
      }
    </style>
  </defs>
  <g id="Group_448" data-name="Group 448" transform="translate(9.513 12.626)">
    <path id="Path_21476" data-name="Path 21476" class="cls-1" d="M714.643,157.1c.008.191.008.39.008.59a14.333,14.333,0,0,1-22.07,12.078.122.122,0,0,1-.05-.141.14.14,0,0,1,.133-.083,9.266,9.266,0,0,0,1.18.066,9.827,9.827,0,0,0,5.864-1.911,5.118,5.118,0,0,1-4.444-3.539.119.119,0,0,1,.025-.116.122.122,0,0,1,.116-.042,4.891,4.891,0,0,0,1.7.025,5.136,5.136,0,0,1-3.6-4.893v-.066a.115.115,0,0,1,.058-.1.1.1,0,0,1,.116,0,5.018,5.018,0,0,0,1.786.581,5.121,5.121,0,0,1-1.927-4,5.176,5.176,0,0,1,.689-2.575.115.115,0,0,1,.1-.058.158.158,0,0,1,.108.042,14.12,14.12,0,0,0,10.051,5.167,5.117,5.117,0,0,1,8.705-4.552,10.049,10.049,0,0,0,3.073-1.188.126.126,0,0,1,.141.008.118.118,0,0,1,.042.133,5.074,5.074,0,0,1-1.8,2.525,10.153,10.153,0,0,0,2.309-.7.115.115,0,0,1,.141.033.124.124,0,0,1,.008.15A10.067,10.067,0,0,1,714.643,157.1Z" transform="translate(-692.525 -152)"/>
  </g>
  <path id="Path_21477" data-name="Path 21477" class="cls-1" d="M599.265,0a21.265,21.265,0,1,0,21.265,21.265A21.263,21.263,0,0,0,599.265,0Zm0,39.207a17.942,17.942,0,1,1,17.942-17.942A17.941,17.941,0,0,1,599.265,39.207Z" transform="translate(-578)"/>
</svg>
