<svg id="Group_698" data-name="Group 698" xmlns="http://www.w3.org/2000/svg" viewBox="0 0 51.75 51.75">
  <defs>
    <style>
      .cls-1 {
        fill: #00a3e6;
      }
    </style>
  </defs>
  <path id="Path_21478" data-name="Path 21478" class="cls-1" d="M1181.875,0a25.875,25.875,0,1,0,25.875,25.875A25.873,25.873,0,0,0,1181.875,0Zm0,47.707a21.832,21.832,0,1,1,21.832-21.832A21.831,21.831,0,0,1,1181.875,47.707Z" transform="translate(-1156)"/>
  <path id="Path_21479" data-name="Path 21479" class="cls-1" d="M1363.671,136.885h-4.5V133.6c0-1.011,1.041-1.243,1.526-1.243h2.911V127.92l-3.335-.02c-4.548,0-5.579,3.305-5.579,5.428v3.548H1351.4v4.579h3.295v12.331h4.478V141.454h3.81Z" transform="translate(-1331.65 -114.973)"/>
</svg>
