<svg id="Group_576" data-name="Group 576" xmlns="http://www.w3.org/2000/svg" viewBox="0 0 42.529 42.529">
  <defs>
    <style>
      .cls-1 {
        fill: #00a3e6;
      }
    </style>
  </defs>
  <path id="Path_21474" data-name="Path 21474" class="cls-1" d="M21.265,0A21.265,21.265,0,1,0,42.529,21.265,21.263,21.263,0,0,0,21.265,0Zm0,39.207A17.942,17.942,0,1,1,39.207,21.265,17.941,17.941,0,0,1,21.265,39.207Z"/>
  <g id="Group_446" data-name="Group 446" transform="translate(10.641 10.624)">
    <g id="Group_445" data-name="Group 445">
      <path id="Path_21475" data-name="Path 21475" class="cls-1" d="M128.1,149.165h3.987V133.216H128.1Zm15.949-15.949a7.306,7.306,0,0,0-5.316,2.658v-2.658h-3.987v15.949h3.987v-9.3a3.388,3.388,0,0,1,3.987-2.658c1.686.108,2.6,2.342,2.658,2.658v9.3l3.971.017V138.142A4.977,4.977,0,0,0,144.049,133.216ZM130.094,127.9a1.994,1.994,0,1,0,1.994,1.994A1.994,1.994,0,0,0,130.094,127.9Z" transform="translate(-128.1 -127.9)"/>
    </g>
  </g>
</svg>
