<svg xmlns="http://www.w3.org/2000/svg" viewBox="0 0 27.556 20.283">
  <defs>
    <style>
      .cls-1 {
        fill: #fff;
        opacity: 0.8;
      }
    </style>
  </defs>
  <path id="Union_22" data-name="Union 22" class="cls-1" d="M13.82,20.283h-.085v0a12.6,12.6,0,0,1-3.181-.648,17.116,17.116,0,0,1-2.793-1.2,19.037,19.037,0,0,1-3.184-2.167A18.107,18.107,0,0,1,.814,12.2a4.862,4.862,0,0,1-.806-1.98H0a.007.007,0,0,1,0,0c0-.023,0-.049,0-.08a.7.7,0,0,1,0-.082H.008a4.871,4.871,0,0,1,.806-1.98A18.111,18.111,0,0,1,4.577,4.02,19.037,19.037,0,0,1,7.761,1.853a17.116,17.116,0,0,1,2.793-1.2A12.59,12.59,0,0,1,13.735,0V0h.085V0A12.605,12.605,0,0,1,17,.651a17.116,17.116,0,0,1,2.793,1.2A19.037,19.037,0,0,1,22.979,4.02a18.111,18.111,0,0,1,3.763,4.059,4.864,4.864,0,0,1,.806,1.98h.007a.007.007,0,0,1,0,0c0,.023,0,.05,0,.08a.751.751,0,0,1,0,.082h-.007a4.865,4.865,0,0,1-.806,1.98,18.111,18.111,0,0,1-3.763,4.059A19.037,19.037,0,0,1,19.8,18.429,17.116,17.116,0,0,1,17,19.632a12.59,12.59,0,0,1-3.181.648v0h0ZM10.968,3.353a7.376,7.376,0,1,0,2.861-.578A7.327,7.327,0,0,0,10.968,3.353Zm-1.2,6.773a4.062,4.062,0,1,1,4.062,4.062A4.062,4.062,0,0,1,9.767,10.127Z" transform="translate(0 0.001)"/>
</svg>
